# xmcd
#
# Track frame offsets:
#	150
#	15564
#	31240
#	48575
#	66779
#	83850
#	99579
#	114992
#	130670
#	148005
#	166209
#	183253
#
# Disc length: 2651 seconds
#
# Revision: 3
# Processed by: cddbd v1.5.2PL0 Copyright (c) Steve Scherf et al.
# Submitted via: audiograbber 1.83.01
#
DISCID=960a590c
DTITLE=Various Artist - CB20101
DYEAR=1900
DGENRE=Karaoke
TTITLE0=Messina, Jo Dee - I'm Alright (Vocals)
TTITLE1=Messina, Jo Dee - Bye Bye (Vocals)
TTITLE2=Messina, Jo Dee - Stand Beside Me (Vocals)
TTITLE3=Messina, Jo Dee - Because You Love Me (Vocals)
TTITLE4=Messina, Jo Dee - Lesson In Leavin' (Vocals)
TTITLE5=Messina, Jo Dee - Heads Carolina, Tails California (Vocals)
TTITLE6=Messina, Jo Dee - I'm Alright
TTITLE7=Messina, Jo Dee - Bye Bye
TTITLE8=Messina, Jo Dee - Stand Beside Me
TTITLE9=Messina, Jo Dee - Because You Love Me
TTITLE10=Messina, Jo Dee - Lesson In Leavin'
TTITLE11=Messina, Jo Dee - Heads Carolina, Tails California
EXTD=
EXTT0=
EXTT1=
EXTT2=
EXTT3=
EXTT4=
EXTT5=
EXTT6=
EXTT7=
EXTT8=
EXTT9=
EXTT10=
EXTT11=
PLAYORDER=
